<svg width="720" height="620" viewBox="0 0 720 620" fill="none" xmlns="http://www.w3.org/2000/svg">
  <rect width="720" height="620" rx="40" fill="#FFF9F7"/>
  <rect x="84" y="112" width="552" height="392" rx="32" fill="white" stroke="#F1D8DE" stroke-width="2"/>
  <rect x="136" y="158" width="176" height="244" rx="24" fill="#FDF0F3"/>
  <circle cx="224" cy="240" r="56" fill="#F7D0DB"/>
  <path d="M187 286C199.76 258.969 226.981 240 258.5 240C290.019 240 317.24 258.969 330 286" stroke="#A45A6F" stroke-width="12" stroke-linecap="round"/>
  <rect x="350" y="158" width="236" height="32" rx="16" fill="#F8E6EA"/>
  <rect x="350" y="210" width="190" height="14" rx="7" fill="#F7E8DA"/>
  <rect x="350" y="240" width="210" height="14" rx="7" fill="#F7E8DA"/>
  <rect x="350" y="288" width="78" height="140" rx="20" fill="#FCF1F3"/>
  <rect x="444" y="288" width="78" height="140" rx="20" fill="#FDF3E4"/>
  <rect x="538" y="288" width="48" height="140" rx="20" fill="#FCE7EC"/>
  <rect x="371" y="320" width="36" height="76" rx="12" fill="#D97F96"/>
  <rect x="465" y="316" width="36" height="80" rx="12" fill="#C79B54"/>
  <rect x="554" y="312" width="18" height="88" rx="9" fill="#B15D7A"/>
  <circle cx="594" cy="98" r="44" fill="#FAE2C8"/>
  <circle cx="124" cy="528" r="58" fill="#F8D7E2"/>
</svg>
